<mxfile host="drawio-plugin" modified="2024-03-12T10:14:58.700Z" agent="5.0 (Macintosh; Intel Mac OS X 10_15_7) AppleWebKit/537.36 (KHTML, like Gecko) Chrome/111.0.0.0 Safari/537.36" etag="Pr5d0x-V5m-LyrAAa3bx" version="20.5.3" type="embed"><diagram id="SfdX-snPM93B8bF9I1mG" name="Page-1"><mxGraphModel dx="1162" dy="1692" grid="1" gridSize="10" guides="1" tooltips="1" connect="1" arrows="1" fold="1" page="1" pageScale="1" pageWidth="850" pageHeight="1100" math="0" shadow="0"><root><mxCell id="0"/><mxCell id="1" parent="0"/><mxCell id="148" style="edgeStyle=elbowEdgeStyle;elbow=vertical;html=1;exitX=0.5;exitY=1;exitDx=0;exitDy=0;entryX=0.5;entryY=0;entryDx=0;entryDy=0;fontColor=#fafafa;align=center;labelBackgroundColor=none;shadow=1;" parent="1" source="8" target="18" edge="1"><mxGeometry relative="1" as="geometry"/></mxCell><mxCell id="8" value="Employee card" style="swimlane;fontStyle=0;childLayout=stackLayout;horizontal=1;startSize=30;horizontalStack=0;resizeParent=1;resizeParentMax=0;resizeLast=0;collapsible=1;marginBottom=0;whiteSpace=wrap;html=1;fillColor=#1ba1e2;fontColor=#fafafa;strokeColor=#006EAF;gradientColor=none;swimlaneFillColor=#000000;align=center;labelBackgroundColor=none;shadow=1;" parent="1" vertex="1"><mxGeometry x="180" y="-40" width="100" height="120" as="geometry"/></mxCell><mxCell id="9" value="owner_id" style="text;strokeColor=none;fillColor=none;align=center;verticalAlign=middle;spacingLeft=4;spacingRight=4;overflow=hidden;points=[[0,0.5],[1,0.5]];portConstraint=eastwest;rotatable=0;whiteSpace=wrap;html=1;labelBackgroundColor=none;fontColor=#fafafa;shadow=1;" parent="8" vertex="1"><mxGeometry y="30" width="100" height="30" as="geometry"/></mxCell><mxCell id="200" value="card_number" style="text;strokeColor=none;fillColor=none;align=center;verticalAlign=middle;spacingLeft=4;spacingRight=4;overflow=hidden;points=[[0,0.5],[1,0.5]];portConstraint=eastwest;rotatable=0;whiteSpace=wrap;html=1;labelBackgroundColor=none;fontColor=#fafafa;shadow=1;" parent="8" vertex="1"><mxGeometry y="60" width="100" height="30" as="geometry"/></mxCell><mxCell id="10" value="holder_name" style="text;strokeColor=none;fillColor=none;align=center;verticalAlign=middle;spacingLeft=4;spacingRight=4;overflow=hidden;points=[[0,0.5],[1,0.5]];portConstraint=eastwest;rotatable=0;whiteSpace=wrap;html=1;labelBackgroundColor=none;fontColor=#fafafa;shadow=1;" parent="8" vertex="1"><mxGeometry y="90" width="100" height="30" as="geometry"/></mxCell><mxCell id="18" value="Employee" style="swimlane;fontStyle=0;childLayout=stackLayout;horizontal=1;startSize=30;horizontalStack=0;resizeParent=1;resizeParentMax=0;resizeLast=0;collapsible=1;marginBottom=0;whiteSpace=wrap;html=1;fillColor=#008a00;fontColor=#fafafa;strokeColor=#005700;swimlaneFillColor=#000000;align=center;labelBackgroundColor=none;shadow=1;" parent="1" vertex="1"><mxGeometry x="280" y="130" width="110" height="150" as="geometry"/></mxCell><mxCell id="19" value="name" style="text;strokeColor=none;fillColor=none;align=center;verticalAlign=middle;spacingLeft=4;spacingRight=4;overflow=hidden;points=[[0,0.5],[1,0.5]];portConstraint=eastwest;rotatable=0;whiteSpace=wrap;html=1;labelBackgroundColor=none;fontColor=#fafafa;shadow=1;" parent="18" vertex="1"><mxGeometry y="30" width="110" height="30" as="geometry"/></mxCell><mxCell id="20" value="surname" style="text;strokeColor=none;fillColor=none;align=center;verticalAlign=middle;spacingLeft=4;spacingRight=4;overflow=hidden;points=[[0,0.5],[1,0.5]];portConstraint=eastwest;rotatable=0;whiteSpace=wrap;html=1;labelBackgroundColor=none;fontColor=#fafafa;shadow=1;" parent="18" vertex="1"><mxGeometry y="60" width="110" height="30" as="geometry"/></mxCell><mxCell id="21" value="phone_number" style="text;strokeColor=none;fillColor=none;align=center;verticalAlign=middle;spacingLeft=4;spacingRight=4;overflow=hidden;points=[[0,0.5],[1,0.5]];portConstraint=eastwest;rotatable=0;whiteSpace=wrap;html=1;labelBackgroundColor=none;fontColor=#fafafa;shadow=1;" parent="18" vertex="1"><mxGeometry y="90" width="110" height="30" as="geometry"/></mxCell><mxCell id="109" value="date_created" style="text;strokeColor=none;fillColor=none;align=center;verticalAlign=middle;spacingLeft=4;spacingRight=4;overflow=hidden;points=[[0,0.5],[1,0.5]];portConstraint=eastwest;rotatable=0;whiteSpace=wrap;html=1;labelBackgroundColor=none;fontColor=#fafafa;shadow=1;" parent="18" vertex="1"><mxGeometry y="120" width="110" height="30" as="geometry"/></mxCell><mxCell id="153" style="edgeStyle=elbowEdgeStyle;elbow=vertical;html=1;exitX=0.75;exitY=0;exitDx=0;exitDy=0;entryX=0.134;entryY=0.969;entryDx=0;entryDy=0;entryPerimeter=0;fontColor=#fafafa;align=center;labelBackgroundColor=none;shadow=1;" parent="1" source="27" target="109" edge="1"><mxGeometry relative="1" as="geometry"/></mxCell><mxCell id="27" value="&lt;font&gt;Employee pasport&lt;/font&gt;" style="swimlane;fontStyle=0;childLayout=stackLayout;horizontal=1;startSize=30;horizontalStack=0;resizeParent=1;resizeParentMax=0;resizeLast=0;collapsible=1;marginBottom=0;whiteSpace=wrap;html=1;fillColor=#ffcd28;strokeColor=#d79b00;gradientColor=none;swimlaneFillColor=#080808;align=center;labelBackgroundColor=none;fontColor=#fafafa;shadow=1;" parent="1" vertex="1"><mxGeometry x="100" y="460" width="130" height="120" as="geometry"/></mxCell><mxCell id="28" value="owner_id" style="text;strokeColor=none;fillColor=none;align=center;verticalAlign=middle;spacingLeft=4;spacingRight=4;overflow=hidden;points=[[0,0.5],[1,0.5]];portConstraint=eastwest;rotatable=0;whiteSpace=wrap;html=1;labelBackgroundColor=none;fontColor=#fafafa;shadow=1;" parent="27" vertex="1"><mxGeometry y="30" width="130" height="30" as="geometry"/></mxCell><mxCell id="30" value="images_dir" style="text;strokeColor=none;fillColor=none;align=center;verticalAlign=middle;spacingLeft=4;spacingRight=4;overflow=hidden;points=[[0,0.5],[1,0.5]];portConstraint=eastwest;rotatable=0;whiteSpace=wrap;html=1;labelBackgroundColor=none;fontColor=#fafafa;shadow=1;" parent="27" vertex="1"><mxGeometry y="60" width="130" height="30" as="geometry"/></mxCell><mxCell id="110" value="is_approved" style="text;strokeColor=none;fillColor=none;align=center;verticalAlign=middle;spacingLeft=4;spacingRight=4;overflow=hidden;points=[[0,0.5],[1,0.5]];portConstraint=eastwest;rotatable=0;whiteSpace=wrap;html=1;labelBackgroundColor=none;fontColor=#fafafa;shadow=1;" parent="27" vertex="1"><mxGeometry y="90" width="130" height="30" as="geometry"/></mxCell><mxCell id="154" style="edgeStyle=elbowEdgeStyle;elbow=vertical;html=1;exitX=0.5;exitY=0;exitDx=0;exitDy=0;entryX=0.506;entryY=1.061;entryDx=0;entryDy=0;entryPerimeter=0;fontColor=#fafafa;align=center;labelBackgroundColor=none;shadow=1;" parent="1" source="31" target="109" edge="1"><mxGeometry relative="1" as="geometry"><Array as="points"><mxPoint x="310" y="410"/></Array></mxGeometry></mxCell><mxCell id="31" value="Proposals" style="swimlane;fontStyle=0;childLayout=stackLayout;horizontal=1;startSize=30;horizontalStack=0;resizeParent=1;resizeParentMax=0;resizeLast=0;collapsible=1;marginBottom=0;whiteSpace=wrap;html=1;fillColor=#a20025;fontColor=#fafafa;strokeColor=#6F0000;swimlaneFillColor=#000000;align=center;labelBackgroundColor=none;shadow=1;" parent="1" vertex="1"><mxGeometry x="250" y="460" width="80" height="150" as="geometry"/></mxCell><mxCell id="33" value="owner_id" style="text;strokeColor=none;fillColor=none;align=center;verticalAlign=middle;spacingLeft=4;spacingRight=4;overflow=hidden;points=[[0,0.5],[1,0.5]];portConstraint=eastwest;rotatable=0;whiteSpace=wrap;html=1;labelBackgroundColor=none;fontColor=#fafafa;shadow=1;" parent="31" vertex="1"><mxGeometry y="30" width="80" height="30" as="geometry"/></mxCell><mxCell id="124" value="order_id" style="text;strokeColor=none;fillColor=none;align=center;verticalAlign=middle;spacingLeft=4;spacingRight=4;overflow=hidden;points=[[0,0.5],[1,0.5]];portConstraint=eastwest;rotatable=0;whiteSpace=wrap;html=1;labelBackgroundColor=none;fontColor=#fafafa;shadow=1;" parent="31" vertex="1"><mxGeometry y="60" width="80" height="30" as="geometry"/></mxCell><mxCell id="125" value="message" style="text;strokeColor=none;fillColor=none;align=center;verticalAlign=middle;spacingLeft=4;spacingRight=4;overflow=hidden;points=[[0,0.5],[1,0.5]];portConstraint=eastwest;rotatable=0;whiteSpace=wrap;html=1;labelBackgroundColor=none;fontColor=#fafafa;shadow=1;" parent="31" vertex="1"><mxGeometry y="90" width="80" height="30" as="geometry"/></mxCell><mxCell id="126" value="price" style="text;strokeColor=none;fillColor=none;align=center;verticalAlign=middle;spacingLeft=4;spacingRight=4;overflow=hidden;points=[[0,0.5],[1,0.5]];portConstraint=eastwest;rotatable=0;whiteSpace=wrap;html=1;labelBackgroundColor=none;fontColor=#fafafa;shadow=1;" parent="31" vertex="1"><mxGeometry y="120" width="80" height="30" as="geometry"/></mxCell><mxCell id="155" style="edgeStyle=elbowEdgeStyle;elbow=vertical;html=1;exitX=0.5;exitY=0;exitDx=0;exitDy=0;entryX=0.497;entryY=1;entryDx=0;entryDy=0;entryPerimeter=0;fontColor=#fafafa;align=center;labelBackgroundColor=none;shadow=1;" parent="1" source="39" target="106" edge="1"><mxGeometry relative="1" as="geometry"/></mxCell><mxCell id="39" value="Order" style="swimlane;fontStyle=0;childLayout=stackLayout;horizontal=1;startSize=30;horizontalStack=0;resizeParent=1;resizeParentMax=0;resizeLast=0;collapsible=1;marginBottom=0;whiteSpace=wrap;html=1;fillColor=#e3c800;fontColor=#fafafa;strokeColor=#B09500;swimlaneFillColor=#030303;align=center;labelBackgroundColor=none;shadow=1;" parent="1" vertex="1"><mxGeometry x="520" y="320" width="140" height="240" as="geometry"/></mxCell><mxCell id="40" value="owner_id" style="text;strokeColor=none;fillColor=none;align=center;verticalAlign=middle;spacingLeft=4;spacingRight=4;overflow=hidden;points=[[0,0.5],[1,0.5]];portConstraint=eastwest;rotatable=0;whiteSpace=wrap;html=1;labelBackgroundColor=none;fontColor=#fafafa;shadow=1;" parent="39" vertex="1"><mxGeometry y="30" width="140" height="30" as="geometry"/></mxCell><mxCell id="41" value="category" style="text;strokeColor=none;fillColor=none;align=center;verticalAlign=middle;spacingLeft=4;spacingRight=4;overflow=hidden;points=[[0,0.5],[1,0.5]];portConstraint=eastwest;rotatable=0;whiteSpace=wrap;html=1;labelBackgroundColor=none;fontColor=#fafafa;shadow=1;" parent="39" vertex="1"><mxGeometry y="60" width="140" height="30" as="geometry"/></mxCell><mxCell id="111" value="description" style="text;strokeColor=none;fillColor=none;align=center;verticalAlign=middle;spacingLeft=4;spacingRight=4;overflow=hidden;points=[[0,0.5],[1,0.5]];portConstraint=eastwest;rotatable=0;whiteSpace=wrap;html=1;labelBackgroundColor=none;fontColor=#fafafa;shadow=1;" parent="39" vertex="1"><mxGeometry y="90" width="140" height="30" as="geometry"/></mxCell><mxCell id="112" value="images_dir" style="text;strokeColor=none;fillColor=none;align=center;verticalAlign=middle;spacingLeft=4;spacingRight=4;overflow=hidden;points=[[0,0.5],[1,0.5]];portConstraint=eastwest;rotatable=0;whiteSpace=wrap;html=1;labelBackgroundColor=none;fontColor=#fafafa;shadow=1;" parent="39" vertex="1"><mxGeometry y="120" width="140" height="30" as="geometry"/></mxCell><mxCell id="113" value="location" style="text;strokeColor=none;fillColor=none;align=center;verticalAlign=middle;spacingLeft=4;spacingRight=4;overflow=hidden;points=[[0,0.5],[1,0.5]];portConstraint=eastwest;rotatable=0;whiteSpace=wrap;html=1;labelBackgroundColor=none;fontColor=#fafafa;shadow=1;" parent="39" vertex="1"><mxGeometry y="150" width="140" height="30" as="geometry"/></mxCell><mxCell id="114" value="location_link" style="text;strokeColor=none;fillColor=none;align=center;verticalAlign=middle;spacingLeft=4;spacingRight=4;overflow=hidden;points=[[0,0.5],[1,0.5]];portConstraint=eastwest;rotatable=0;whiteSpace=wrap;html=1;labelBackgroundColor=none;fontColor=#fafafa;shadow=1;" parent="39" vertex="1"><mxGeometry y="180" width="140" height="30" as="geometry"/></mxCell><mxCell id="115" value="price" style="text;strokeColor=none;fillColor=none;align=center;verticalAlign=middle;spacingLeft=4;spacingRight=4;overflow=hidden;points=[[0,0.5],[1,0.5]];portConstraint=eastwest;rotatable=0;whiteSpace=wrap;html=1;labelBackgroundColor=none;fontColor=#fafafa;shadow=1;" parent="39" vertex="1"><mxGeometry y="210" width="140" height="30" as="geometry"/></mxCell><mxCell id="43" value="Job" style="swimlane;fontStyle=0;childLayout=stackLayout;horizontal=1;startSize=30;horizontalStack=0;resizeParent=1;resizeParentMax=0;resizeLast=0;collapsible=1;marginBottom=0;whiteSpace=wrap;html=1;fillColor=#1ba1e2;strokeColor=#006EAF;fillStyle=auto;fontColor=#fafafa;swimlaneFillColor=#0A0A0A;align=center;labelBackgroundColor=none;shadow=1;" parent="1" vertex="1"><mxGeometry x="370" y="660" width="100" height="150" as="geometry"/></mxCell><mxCell id="44" value="proposal_id" style="text;strokeColor=none;fillColor=none;align=center;verticalAlign=middle;spacingLeft=4;spacingRight=4;overflow=hidden;points=[[0,0.5],[1,0.5]];portConstraint=eastwest;rotatable=0;whiteSpace=wrap;html=1;labelBackgroundColor=none;fontColor=#fafafa;shadow=1;" parent="43" vertex="1"><mxGeometry y="30" width="100" height="30" as="geometry"/></mxCell><mxCell id="46" value="order_id" style="text;strokeColor=none;fillColor=none;align=center;verticalAlign=middle;spacingLeft=4;spacingRight=4;overflow=hidden;points=[[0,0.5],[1,0.5]];portConstraint=eastwest;rotatable=0;whiteSpace=wrap;html=1;labelBackgroundColor=none;fontColor=#fafafa;shadow=1;" parent="43" vertex="1"><mxGeometry y="60" width="100" height="30" as="geometry"/></mxCell><mxCell id="127" value="price" style="text;strokeColor=none;fillColor=none;align=center;verticalAlign=middle;spacingLeft=4;spacingRight=4;overflow=hidden;points=[[0,0.5],[1,0.5]];portConstraint=eastwest;rotatable=0;whiteSpace=wrap;html=1;labelBackgroundColor=none;fontColor=#fafafa;shadow=1;" parent="43" vertex="1"><mxGeometry y="90" width="100" height="30" as="geometry"/></mxCell><mxCell id="129" value="is_active" style="text;strokeColor=none;fillColor=none;align=center;verticalAlign=middle;spacingLeft=4;spacingRight=4;overflow=hidden;points=[[0,0.5],[1,0.5]];portConstraint=eastwest;rotatable=0;whiteSpace=wrap;html=1;labelBackgroundColor=none;fontColor=#fafafa;shadow=1;" parent="43" vertex="1"><mxGeometry y="120" width="100" height="30" as="geometry"/></mxCell><mxCell id="57" value="&lt;span style=&quot;background-color: rgb(38, 38, 38);&quot;&gt;Employer review&lt;/span&gt;" style="swimlane;fontStyle=0;childLayout=stackLayout;horizontal=1;startSize=30;horizontalStack=0;resizeParent=1;resizeParentMax=0;resizeLast=0;collapsible=1;marginBottom=0;whiteSpace=wrap;html=1;fillColor=#f5f5f5;fontColor=#fafafa;strokeColor=#666666;swimlaneFillColor=#0D0D0D;align=center;labelBackgroundColor=none;shadow=1;" parent="1" vertex="1"><mxGeometry x="700" y="560" width="140" height="180" as="geometry"/></mxCell><mxCell id="166" value="job_id" style="text;strokeColor=none;fillColor=none;align=center;verticalAlign=middle;spacingLeft=4;spacingRight=4;overflow=hidden;points=[[0,0.5],[1,0.5]];portConstraint=eastwest;rotatable=0;whiteSpace=wrap;html=1;labelBackgroundColor=none;fontColor=#fafafa;shadow=1;" parent="57" vertex="1"><mxGeometry y="30" width="140" height="30" as="geometry"/></mxCell><mxCell id="181" value="owner_id" style="text;strokeColor=none;fillColor=none;align=center;verticalAlign=middle;spacingLeft=4;spacingRight=4;overflow=hidden;points=[[0,0.5],[1,0.5]];portConstraint=eastwest;rotatable=0;whiteSpace=wrap;html=1;labelBackgroundColor=none;fontColor=#fafafa;shadow=1;" parent="57" vertex="1"><mxGeometry y="60" width="140" height="30" as="geometry"/></mxCell><mxCell id="183" value="employee_id" style="text;strokeColor=none;fillColor=none;align=center;verticalAlign=middle;spacingLeft=4;spacingRight=4;overflow=hidden;points=[[0,0.5],[1,0.5]];portConstraint=eastwest;rotatable=0;whiteSpace=wrap;html=1;labelBackgroundColor=none;fontColor=#fafafa;shadow=1;" parent="57" vertex="1"><mxGeometry y="90" width="140" height="30" as="geometry"/></mxCell><mxCell id="58" value="rate(stars)" style="text;strokeColor=none;fillColor=none;align=center;verticalAlign=middle;spacingLeft=4;spacingRight=4;overflow=hidden;points=[[0,0.5],[1,0.5]];portConstraint=eastwest;rotatable=0;whiteSpace=wrap;html=1;labelBackgroundColor=none;fontColor=#fafafa;shadow=1;" parent="57" vertex="1"><mxGeometry y="120" width="140" height="30" as="geometry"/></mxCell><mxCell id="59" value="message" style="text;strokeColor=none;fillColor=none;align=center;verticalAlign=middle;spacingLeft=4;spacingRight=4;overflow=hidden;points=[[0,0.5],[1,0.5]];portConstraint=eastwest;rotatable=0;whiteSpace=wrap;html=1;labelBackgroundColor=none;fontColor=#fafafa;shadow=1;" parent="57" vertex="1"><mxGeometry y="150" width="140" height="30" as="geometry"/></mxCell><mxCell id="76" value="" style="endArrow=classic;html=1;exitX=0;exitY=0;exitDx=0;exitDy=0;entryX=0.99;entryY=0.966;entryDx=0;entryDy=0;entryPerimeter=0;align=center;labelBackgroundColor=none;fontColor=#fafafa;shadow=1;" parent="1" source="43" target="126" edge="1"><mxGeometry width="50" height="50" relative="1" as="geometry"><mxPoint x="430" y="480" as="sourcePoint"/><mxPoint x="359.8599999999997" y="530.9300000000001" as="targetPoint"/><Array as="points"/></mxGeometry></mxCell><mxCell id="77" value="" style="endArrow=classic;html=1;exitX=1;exitY=0;exitDx=0;exitDy=0;entryX=0;entryY=1;entryDx=0;entryDy=0;align=center;labelBackgroundColor=none;fontColor=#fafafa;shadow=1;" parent="1" source="43" target="39" edge="1"><mxGeometry width="50" height="50" relative="1" as="geometry"><mxPoint x="430" y="480" as="sourcePoint"/><mxPoint x="480" y="430" as="targetPoint"/></mxGeometry></mxCell><mxCell id="89" value="Employer" style="swimlane;fontStyle=0;childLayout=stackLayout;horizontal=1;startSize=30;horizontalStack=0;resizeParent=1;resizeParentMax=0;resizeLast=0;collapsible=1;marginBottom=0;whiteSpace=wrap;html=1;fillColor=#008a00;fontColor=#fafafa;strokeColor=#005700;swimlaneFillColor=#080808;align=center;labelBackgroundColor=none;shadow=1;" parent="1" vertex="1"><mxGeometry x="465" y="130" width="105" height="150" as="geometry"/></mxCell><mxCell id="90" value="name" style="text;strokeColor=none;fillColor=none;align=center;verticalAlign=middle;spacingLeft=4;spacingRight=4;overflow=hidden;points=[[0,0.5],[1,0.5]];portConstraint=eastwest;rotatable=0;whiteSpace=wrap;html=1;labelBackgroundColor=none;fontColor=#fafafa;shadow=1;" parent="89" vertex="1"><mxGeometry y="30" width="105" height="30" as="geometry"/></mxCell><mxCell id="91" value="surname" style="text;strokeColor=none;fillColor=none;align=center;verticalAlign=middle;spacingLeft=4;spacingRight=4;overflow=hidden;points=[[0,0.5],[1,0.5]];portConstraint=eastwest;rotatable=0;whiteSpace=wrap;html=1;labelBackgroundColor=none;fontColor=#fafafa;shadow=1;" parent="89" vertex="1"><mxGeometry y="60" width="105" height="30" as="geometry"/></mxCell><mxCell id="92" value="phone_number" style="text;strokeColor=none;fillColor=none;align=center;verticalAlign=middle;spacingLeft=4;spacingRight=4;overflow=hidden;points=[[0,0.5],[1,0.5]];portConstraint=eastwest;rotatable=0;whiteSpace=wrap;html=1;labelBackgroundColor=none;fontColor=#fafafa;shadow=1;" parent="89" vertex="1"><mxGeometry y="90" width="105" height="30" as="geometry"/></mxCell><mxCell id="106" value="date_created" style="text;strokeColor=none;fillColor=none;align=center;verticalAlign=middle;spacingLeft=4;spacingRight=4;overflow=hidden;points=[[0,0.5],[1,0.5]];portConstraint=eastwest;rotatable=0;whiteSpace=wrap;html=1;labelBackgroundColor=none;fontColor=#fafafa;shadow=1;" parent="89" vertex="1"><mxGeometry y="120" width="105" height="30" as="geometry"/></mxCell><mxCell id="162" style="edgeStyle=elbowEdgeStyle;elbow=vertical;html=1;exitX=0.5;exitY=0;exitDx=0;exitDy=0;fontColor=#fafafa;align=center;labelBackgroundColor=none;shadow=1;" parent="1" source="93" target="129" edge="1"><mxGeometry relative="1" as="geometry"/></mxCell><mxCell id="93" value="Payment" style="swimlane;fontStyle=0;childLayout=stackLayout;horizontal=1;startSize=30;horizontalStack=0;resizeParent=1;resizeParentMax=0;resizeLast=0;collapsible=1;marginBottom=0;whiteSpace=wrap;html=1;fillColor=#1ba1e2;strokeColor=#006EAF;fillStyle=auto;fontColor=#fafafa;swimlaneFillColor=#0A0A0A;align=center;labelBackgroundColor=none;shadow=1;" parent="1" vertex="1"><mxGeometry x="370" y="860" width="140" height="120" as="geometry"/></mxCell><mxCell id="95" value="job_id" style="text;strokeColor=none;fillColor=none;align=center;verticalAlign=middle;spacingLeft=4;spacingRight=4;overflow=hidden;points=[[0,0.5],[1,0.5]];portConstraint=eastwest;rotatable=0;whiteSpace=wrap;html=1;labelBackgroundColor=none;fontColor=#fafafa;shadow=1;" parent="93" vertex="1"><mxGeometry y="30" width="140" height="30" as="geometry"/></mxCell><mxCell id="96" value="employee_approve" style="text;strokeColor=none;fillColor=none;align=center;verticalAlign=middle;spacingLeft=4;spacingRight=4;overflow=hidden;points=[[0,0.5],[1,0.5]];portConstraint=eastwest;rotatable=0;whiteSpace=wrap;html=1;labelBackgroundColor=none;fontColor=#fafafa;shadow=1;" parent="93" vertex="1"><mxGeometry y="60" width="140" height="30" as="geometry"/></mxCell><mxCell id="130" value="employer_approve" style="text;strokeColor=none;fillColor=none;align=center;verticalAlign=middle;spacingLeft=4;spacingRight=4;overflow=hidden;points=[[0,0.5],[1,0.5]];portConstraint=eastwest;rotatable=0;whiteSpace=wrap;html=1;labelBackgroundColor=none;fontColor=#fafafa;shadow=1;" parent="93" vertex="1"><mxGeometry y="90" width="140" height="30" as="geometry"/></mxCell><mxCell id="117" value="CV" style="swimlane;fontStyle=0;childLayout=stackLayout;horizontal=1;startSize=30;horizontalStack=0;resizeParent=1;resizeParentMax=0;resizeLast=0;collapsible=1;marginBottom=0;whiteSpace=wrap;html=1;fillStyle=auto;fontColor=#fafafa;fillColor=#fa6800;strokeColor=#C73500;swimlaneFillColor=#000000;align=center;labelBackgroundColor=none;shadow=1;" parent="1" vertex="1"><mxGeometry x="50" y="80" width="110" height="150" as="geometry"/></mxCell><mxCell id="118" value="owner_id" style="text;strokeColor=none;fillColor=none;align=center;verticalAlign=middle;spacingLeft=4;spacingRight=4;overflow=hidden;points=[[0,0.5],[1,0.5]];portConstraint=eastwest;rotatable=0;whiteSpace=wrap;html=1;fillStyle=cross-hatch;fontColor=#fafafa;labelBackgroundColor=none;shadow=1;" parent="117" vertex="1"><mxGeometry y="30" width="110" height="30" as="geometry"/></mxCell><mxCell id="119" value="Image" style="text;strokeColor=none;fillColor=none;align=center;verticalAlign=middle;spacingLeft=4;spacingRight=4;overflow=hidden;points=[[0,0.5],[1,0.5]];portConstraint=eastwest;rotatable=0;whiteSpace=wrap;html=1;fillStyle=cross-hatch;fontColor=#fafafa;labelBackgroundColor=none;shadow=1;" parent="117" vertex="1"><mxGeometry y="60" width="110" height="30" as="geometry"/></mxCell><mxCell id="120" value="bio" style="text;strokeColor=none;fillColor=none;align=center;verticalAlign=middle;spacingLeft=4;spacingRight=4;overflow=hidden;points=[[0,0.5],[1,0.5]];portConstraint=eastwest;rotatable=0;whiteSpace=wrap;html=1;fillStyle=cross-hatch;fontColor=#fafafa;labelBackgroundColor=none;shadow=1;" parent="117" vertex="1"><mxGeometry y="90" width="110" height="30" as="geometry"/></mxCell><mxCell id="190" value="rating (⭐⭐⭐⭐⭐)" style="text;strokeColor=none;fillColor=none;align=center;verticalAlign=middle;spacingLeft=4;spacingRight=4;overflow=hidden;points=[[0,0.5],[1,0.5]];portConstraint=eastwest;rotatable=0;whiteSpace=wrap;html=1;fillStyle=cross-hatch;fontColor=#fafafa;labelBackgroundColor=none;shadow=1;" parent="117" vertex="1"><mxGeometry y="120" width="110" height="30" as="geometry"/></mxCell><mxCell id="191" value="" style="edgeStyle=none;align=center;labelBorderColor=#d62929;labelBackgroundColor=none;fontColor=#fafafa;shadow=1;" parent="117" source="117" target="119" edge="1"><mxGeometry relative="1" as="geometry"/></mxCell><mxCell id="121" value="" style="endArrow=classic;html=1;fontColor=#fafafa;elbow=vertical;entryX=0;entryY=0.5;entryDx=0;entryDy=0;exitX=1;exitY=0.5;exitDx=0;exitDy=0;align=center;labelBackgroundColor=none;shadow=1;" parent="1" source="124" target="111" edge="1"><mxGeometry width="50" height="50" relative="1" as="geometry"><mxPoint x="360" y="480" as="sourcePoint"/><mxPoint x="520" y="480" as="targetPoint"/></mxGeometry></mxCell><mxCell id="131" value="Job appeal" style="swimlane;fontStyle=0;childLayout=stackLayout;horizontal=1;startSize=30;horizontalStack=0;resizeParent=1;resizeParentMax=0;resizeLast=0;collapsible=1;marginBottom=0;whiteSpace=wrap;html=1;fillColor=#9BE42E;strokeColor=none;fillStyle=auto;fontColor=#fafafa;swimlaneFillColor=#010000;align=center;labelBackgroundColor=none;shadow=1;" parent="1" vertex="1"><mxGeometry x="220" y="690" width="80" height="120" as="geometry"/></mxCell><mxCell id="135" value="owner_id" style="text;strokeColor=none;fillColor=none;align=center;verticalAlign=middle;spacingLeft=4;spacingRight=4;overflow=hidden;points=[[0,0.5],[1,0.5]];portConstraint=eastwest;rotatable=0;whiteSpace=wrap;html=1;labelBackgroundColor=none;fontColor=#fafafa;shadow=1;" parent="131" vertex="1"><mxGeometry y="30" width="80" height="30" as="geometry"/></mxCell><mxCell id="132" value="job_id" style="text;strokeColor=none;fillColor=none;align=center;verticalAlign=middle;spacingLeft=4;spacingRight=4;overflow=hidden;points=[[0,0.5],[1,0.5]];portConstraint=eastwest;rotatable=0;whiteSpace=wrap;html=1;labelBackgroundColor=none;fontColor=#fafafa;shadow=1;" parent="131" vertex="1"><mxGeometry y="60" width="80" height="30" as="geometry"/></mxCell><mxCell id="133" value="message" style="text;strokeColor=none;fillColor=none;align=center;verticalAlign=middle;spacingLeft=4;spacingRight=4;overflow=hidden;points=[[0,0.5],[1,0.5]];portConstraint=eastwest;rotatable=0;whiteSpace=wrap;html=1;labelBackgroundColor=none;fontColor=#fafafa;shadow=1;" parent="131" vertex="1"><mxGeometry y="90" width="80" height="30" as="geometry"/></mxCell><mxCell id="137" value="Payment appeal" style="swimlane;fontStyle=0;childLayout=stackLayout;horizontal=1;startSize=30;horizontalStack=0;resizeParent=1;resizeParentMax=0;resizeLast=0;collapsible=1;marginBottom=0;whiteSpace=wrap;html=1;fillColor=#9BE42E;strokeColor=none;fillStyle=auto;fontColor=#fafafa;swimlaneFillColor=#010000;align=center;labelBackgroundColor=none;shadow=1;" parent="1" vertex="1"><mxGeometry x="190" y="870" width="110" height="120" as="geometry"/></mxCell><mxCell id="138" value="payment_id" style="text;strokeColor=none;fillColor=none;align=center;verticalAlign=middle;spacingLeft=4;spacingRight=4;overflow=hidden;points=[[0,0.5],[1,0.5]];portConstraint=eastwest;rotatable=0;whiteSpace=wrap;html=1;labelBackgroundColor=none;fontColor=#fafafa;shadow=1;" parent="137" vertex="1"><mxGeometry y="30" width="110" height="30" as="geometry"/></mxCell><mxCell id="139" value="owner_id" style="text;strokeColor=none;fillColor=none;align=center;verticalAlign=middle;spacingLeft=4;spacingRight=4;overflow=hidden;points=[[0,0.5],[1,0.5]];portConstraint=eastwest;rotatable=0;whiteSpace=wrap;html=1;labelBackgroundColor=none;fontColor=#fafafa;shadow=1;" parent="137" vertex="1"><mxGeometry y="60" width="110" height="30" as="geometry"/></mxCell><mxCell id="140" value="message" style="text;strokeColor=none;fillColor=none;align=center;verticalAlign=middle;spacingLeft=4;spacingRight=4;overflow=hidden;points=[[0,0.5],[1,0.5]];portConstraint=eastwest;rotatable=0;whiteSpace=wrap;html=1;labelBackgroundColor=none;fontColor=#fafafa;shadow=1;" parent="137" vertex="1"><mxGeometry y="90" width="110" height="30" as="geometry"/></mxCell><mxCell id="144" value="" style="shape=umlActor;verticalLabelPosition=bottom;verticalAlign=top;html=1;outlineConnect=0;fillStyle=auto;fontColor=#fafafa;fillColor=#9BE42E;align=center;labelBackgroundColor=none;shadow=1;" parent="1" vertex="1"><mxGeometry x="400" y="160" width="20" height="50" as="geometry"/></mxCell><mxCell id="145" value="" style="shape=umlActor;verticalLabelPosition=bottom;verticalAlign=top;html=1;outlineConnect=0;fillStyle=auto;fontColor=#fafafa;fillColor=#9BE42E;align=center;labelBackgroundColor=none;shadow=1;" parent="1" vertex="1"><mxGeometry x="580" y="160" width="20" height="50" as="geometry"/></mxCell><mxCell id="149" style="edgeStyle=elbowEdgeStyle;html=1;fontColor=#fafafa;align=center;labelBackgroundColor=none;shadow=1;exitX=1.011;exitY=-0.047;exitDx=0;exitDy=0;exitPerimeter=0;entryX=0;entryY=0.5;entryDx=0;entryDy=0;" parent="1" source="120" target="20" edge="1"><mxGeometry relative="1" as="geometry"><mxPoint x="280" y="150" as="targetPoint"/><mxPoint x="140" y="130" as="sourcePoint"/><Array as="points"><mxPoint x="230" y="180"/></Array></mxGeometry></mxCell><mxCell id="164" style="edgeStyle=elbowEdgeStyle;elbow=vertical;html=1;exitX=1;exitY=0.5;exitDx=0;exitDy=0;entryX=0.007;entryY=0.767;entryDx=0;entryDy=0;entryPerimeter=0;fontColor=#fafafa;align=center;labelBackgroundColor=none;shadow=1;" parent="1" source="138" target="95" edge="1"><mxGeometry relative="1" as="geometry"/></mxCell><mxCell id="165" style="edgeStyle=elbowEdgeStyle;elbow=vertical;html=1;exitX=1;exitY=0.5;exitDx=0;exitDy=0;entryX=0;entryY=0.5;entryDx=0;entryDy=0;fontColor=#fafafa;align=center;labelBackgroundColor=none;shadow=1;" parent="1" source="135" target="46" edge="1"><mxGeometry relative="1" as="geometry"/></mxCell><mxCell id="174" value="&lt;span style=&quot;background-color: rgb(0, 0, 0);&quot;&gt;Employee review&lt;/span&gt;" style="swimlane;fontStyle=0;childLayout=stackLayout;horizontal=1;startSize=30;horizontalStack=0;resizeParent=1;resizeParentMax=0;resizeLast=0;collapsible=1;marginBottom=0;whiteSpace=wrap;html=1;fillColor=#f5f5f5;fontColor=#fafafa;strokeColor=#666666;swimlaneFillColor=#000000;align=center;labelBackgroundColor=none;shadow=1;" parent="1" vertex="1"><mxGeometry x="700" y="760" width="140" height="180" as="geometry"/></mxCell><mxCell id="175" value="job_id" style="text;strokeColor=none;fillColor=none;align=center;verticalAlign=middle;spacingLeft=4;spacingRight=4;overflow=hidden;points=[[0,0.5],[1,0.5]];portConstraint=eastwest;rotatable=0;whiteSpace=wrap;html=1;labelBackgroundColor=none;fontColor=#fafafa;shadow=1;" parent="174" vertex="1"><mxGeometry y="30" width="140" height="30" as="geometry"/></mxCell><mxCell id="182" value="owner_id" style="text;strokeColor=none;fillColor=none;align=center;verticalAlign=middle;spacingLeft=4;spacingRight=4;overflow=hidden;points=[[0,0.5],[1,0.5]];portConstraint=eastwest;rotatable=0;whiteSpace=wrap;html=1;labelBackgroundColor=none;fontColor=#fafafa;shadow=1;" parent="174" vertex="1"><mxGeometry y="60" width="140" height="30" as="geometry"/></mxCell><mxCell id="184" value="employer_id" style="text;strokeColor=none;fillColor=none;align=center;verticalAlign=middle;spacingLeft=4;spacingRight=4;overflow=hidden;points=[[0,0.5],[1,0.5]];portConstraint=eastwest;rotatable=0;whiteSpace=wrap;html=1;labelBackgroundColor=none;fontColor=#fafafa;shadow=1;" parent="174" vertex="1"><mxGeometry y="90" width="140" height="30" as="geometry"/></mxCell><mxCell id="176" value="rate(stars)" style="text;strokeColor=none;fillColor=none;align=center;verticalAlign=middle;spacingLeft=4;spacingRight=4;overflow=hidden;points=[[0,0.5],[1,0.5]];portConstraint=eastwest;rotatable=0;whiteSpace=wrap;html=1;labelBackgroundColor=none;fontColor=#fafafa;shadow=1;" parent="174" vertex="1"><mxGeometry y="120" width="140" height="30" as="geometry"/></mxCell><mxCell id="177" value="message" style="text;strokeColor=none;fillColor=none;align=center;verticalAlign=middle;spacingLeft=4;spacingRight=4;overflow=hidden;points=[[0,0.5],[1,0.5]];portConstraint=eastwest;rotatable=0;whiteSpace=wrap;html=1;labelBackgroundColor=none;fontColor=#fafafa;shadow=1;" parent="174" vertex="1"><mxGeometry y="150" width="140" height="30" as="geometry"/></mxCell><mxCell id="179" style="edgeStyle=none;html=1;exitX=0;exitY=0.5;exitDx=0;exitDy=0;entryX=1;entryY=0.5;entryDx=0;entryDy=0;fontColor=#fafafa;align=center;labelBackgroundColor=none;shadow=1;" parent="1" source="58" target="44" edge="1"><mxGeometry relative="1" as="geometry"/></mxCell><mxCell id="180" style="elbow=vertical;html=1;exitX=0;exitY=0.5;exitDx=0;exitDy=0;fontColor=#fafafa;entryX=1;entryY=0.5;entryDx=0;entryDy=0;align=center;labelBackgroundColor=none;shadow=1;" parent="1" source="176" target="127" edge="1"><mxGeometry relative="1" as="geometry"><mxPoint x="510.0000000000002" y="730" as="targetPoint"/></mxGeometry></mxCell><mxCell id="197" value="" style="endArrow=classic;html=1;rounded=0;exitX=0.531;exitY=1.08;exitDx=0;exitDy=0;exitPerimeter=0;" parent="1" source="177" edge="1"><mxGeometry width="50" height="50" relative="1" as="geometry"><mxPoint x="790" y="950" as="sourcePoint"/><mxPoint x="280" y="250" as="targetPoint"/><Array as="points"><mxPoint x="774" y="1060"/><mxPoint x="60" y="1060"/><mxPoint x="60" y="440"/><mxPoint x="60" y="280"/></Array></mxGeometry></mxCell><mxCell id="198" value="" style="endArrow=classic;html=1;rounded=0;exitX=0.643;exitY=0;exitDx=0;exitDy=0;exitPerimeter=0;entryX=1.03;entryY=0.28;entryDx=0;entryDy=0;entryPerimeter=0;" parent="1" source="57" target="92" edge="1"><mxGeometry width="50" height="50" relative="1" as="geometry"><mxPoint x="740" y="350" as="sourcePoint"/><mxPoint x="790" y="130" as="targetPoint"/><Array as="points"><mxPoint x="790" y="228"/></Array></mxGeometry></mxCell></root></mxGraphModel></diagram></mxfile>